# xmcd CD database file generated by Grip 2.95
# 
# Track frame offsets:
#       182
#       21907
#       39015
#       55755
#       74642
#       92670
#       112090
#       127577
#       140965
#       158657
# 
# Disc length: 2469 seconds
# 
# Revision: 3
# Processed by: cddbd v1.4b41PL1 Copyright (c) Steve Scherf et al.
# Submitted via: Grip 2.95
# 
DISCID=8309a30a
DTITLE=R.L. Burnside - Too Bad Jim
DYEAR=1900
DGENRE=
TTITLE0=Shake 'Em On Down
TTITLE1=When My First Wife Left Me
TTITLE2=Short-Haired Woman
TTITLE3=Old Black Mattie
TTITLE4=Fireman Ring The Bell
TTITLE5=Peaches
TTITLE6=Miss Glory B.
TTITLE7=44 Pistol
TTITLE8=Death Bell Blues
TTITLE9=Goin' Down South
EXTD=
EXTT0=
EXTT1=
EXTT2=
EXTT3=
EXTT4=
EXTT5=
EXTT6=
EXTT7=
EXTT8=
EXTT9=
PLAYORDER=
